<svg xmlns="http://www.w3.org/2000/svg"><polygon points="275.0,142.07355 252.0151,184.1471 197.9849,184.1471 175.0,142.07355 197.9849,100.0 252.0151,100.0 275.0,142.07355 " style="fill:#cccccc;stroke:rgb(0,0,255);stroke-width:2"/><polygon points="425.0,142.07355 402.0151,184.1471 347.9849,184.1471 325.0,142.07355 347.9849,100.0 402.0151,100.0 425.0,142.07355 " style="fill:#cccccc;stroke:rgb(0,0,255);stroke-width:2"/><polygon points="575.0,142.07355 552.01514,184.1471 497.9849,184.1471 475.0,142.07355 497.9849,100.0 552.01514,100.0 575.0,142.07355 " style="fill:#cccccc;stroke:rgb(0,0,255);stroke-width:2"/><polygon points="725.0,142.07355 702.01514,184.1471 647.98486,184.1471 625.0,142.07355 647.98486,100.0 702.01514,100.0 725.0,142.07355 " style="fill:#cccccc;stroke:rgb(0,0,255);stroke-width:2"/><polygon points="350.0,184.1471 327.0151,226.22064 272.9849,226.22064 250.0,184.1471 272.9849,142.07355 327.0151,142.07355 350.0,184.1471 " style="fill:#cccccc;stroke:rgb(0,0,255);stroke-width:2"/><polygon points="500.0,184.1471 477.0151,226.22064 422.9849,226.22064 400.0,184.1471 422.9849,142.07355 477.0151,142.07355 500.0,184.1471 " style="fill:#cccccc;stroke:rgb(0,0,255);stroke-width:2"/><polygon points="650.0,184.1471 627.01514,226.22064 572.98486,226.22064 550.0,184.1471 572.98486,142.07355 627.01514,142.07355 650.0,184.1471 " style="fill:#cccccc;stroke:rgb(0,0,255);stroke-width:2"/><polygon points="800.0,184.1471 777.01514,226.22064 722.98486,226.22064 700.0,184.1471 722.98486,142.07355 777.01514,142.07355 800.0,184.1471 " style="fill:#cccccc;stroke:rgb(0,0,255);stroke-width:2"/><polygon points="425.0,226.22064 402.0151,268.2942 347.9849,268.2942 325.0,226.22064 347.9849,184.1471 402.0151,184.1471 425.0,226.22064 " style="fill:#cccccc;stroke:rgb(0,0,255);stroke-width:2"/><polygon points="575.0,226.22064 552.01514,268.2942 497.9849,268.2942 475.0,226.22064 497.9849,184.1471 552.01514,184.1471 575.0,226.22064 " style="fill:#cccccc;stroke:rgb(0,0,255);stroke-width:2"/><polygon points="725.0,226.22064 702.01514,268.2942 647.98486,268.2942 625.0,226.22064 647.98486,184.1471 702.01514,184.1471 725.0,226.22064 " style="fill:#cccccc;stroke:rgb(0,0,255);stroke-width:2"/><polygon points="875.0,226.22064 852.01514,268.2942 797.98486,268.2942 775.0,226.22064 797.98486,184.1471 852.01514,184.1471 875.0,226.22064 " style="fill:#cccccc;stroke:rgb(0,0,255);stroke-width:2"/><polygon points="500.0,268.2942 477.0151,310.36774 422.9849,310.36774 400.0,268.2942 422.9849,226.22064 477.0151,226.22064 500.0,268.2942 " style="fill:#cccccc;stroke:rgb(0,0,255);stroke-width:2"/><polygon points="650.0,268.2942 627.01514,310.36774 572.98486,310.36774 550.0,268.2942 572.98486,226.22064 627.01514,226.22064 650.0,268.2942 " style="fill:#cccccc;stroke:rgb(0,0,255);stroke-width:2"/><polygon points="800.0,268.2942 777.01514,310.36774 722.98486,310.36774 700.0,268.2942 722.98486,226.22064 777.01514,226.22064 800.0,268.2942 " style="fill:#cccccc;stroke:rgb(0,0,255);stroke-width:2"/><polygon points="950.0,268.2942 927.01514,310.36774 872.98486,310.36774 850.0,268.2942 872.98486,226.22064 927.01514,226.22064 950.0,268.2942 " style="fill:#cccccc;stroke:rgb(0,0,255);stroke-width:2"/><polygon points="575.0,310.36774 552.01514,352.44128 497.9849,352.44128 475.0,310.36774 497.9849,268.2942 552.01514,268.2942 575.0,310.36774 " style="fill:#cccccc;stroke:rgb(0,0,255);stroke-width:2"/><polygon points="725.0,310.36774 702.01514,352.44128 647.98486,352.44128 625.0,310.36774 647.98486,268.2942 702.01514,268.2942 725.0,310.36774 " style="fill:#cccccc;stroke:rgb(0,0,255);stroke-width:2"/><polygon points="875.0,310.36774 852.01514,352.44128 797.98486,352.44128 775.0,310.36774 797.98486,268.2942 852.01514,268.2942 875.0,310.36774 " style="fill:#cccccc;stroke:rgb(0,0,255);stroke-width:2"/><polygon points="1025.0,310.36774 1002.01514,352.44128 947.98486,352.44128 925.0,310.36774 947.98486,268.2942 1002.01514,268.2942 1025.0,310.36774 " style="fill:#cccccc;stroke:rgb(0,0,255);stroke-width:2"/></svg>